<!DOCTYPE svg PUBLIC "-//W3C//DTD SVG 1.1//EN" "http://www.w3.org/Graphics/SVG/1.1/DTD/svg11.dtd">
<!-- Uploaded to: SVG Repo, www.svgrepo.com, Transformed by: SVG Repo Mixer Tools -->
<svg width="800px" height="800px" viewBox="0 0 24 24" xmlns="http://www.w3.org/2000/svg" id="chart-column-grow" class="icon glyph" fill="#000000">
<g id="SVGRepo_bgCarrier" stroke-width="0"/>
<g id="SVGRepo_tracerCarrier" stroke-linecap="round" stroke-linejoin="round"/>
<g id="SVGRepo_iconCarrier">
<path d="M7,17v4a1,1,0,0,1-1,1H3a1,1,0,0,1-1-1V17a1,1,0,0,1,1-1H6A1,1,0,0,1,7,17Zm7-3H11a1,1,0,0,0-1,1v6a1,1,0,0,0,1,1h3a1,1,0,0,0,1-1V15A1,1,0,0,0,14,14Zm8-4H19a1,1,0,0,0-1,1V21a1,1,0,0,0,1,1h3a1,1,0,0,0,1-1V11A1,1,0,0,0,22,10ZM20,7.24A1,1,0,1,0,22,6.76l-1-4h0l0-.09a1.34,1.34,0,0,0-.12-.24l-.08-.08a1,1,0,0,0-.19-.17s0,0,0,0l-.07,0A.9.9,0,0,0,20.2,2l-.14,0H16a1,1,0,0,0,0,2h2.13C13.8,9.69,5.9,11,3,11a1,1,0,0,0,0,2c3.16,0,11.71-1.44,16.57-7.61Z" style="fill:#fff"/>
</g>
</svg>